<svg width="440" height="152" viewBox="0 0 440 152" fill="none" xmlns="http://www.w3.org/2000/svg">
<path d="M0 22.4C0 10.0288 9.41272 0 21.0239 0H418.976C430.587 0 440 10.0288 440 22.4V129.6C440 141.971 430.587 152 418.976 152H21.0239C9.41272 152 0 141.971 0 129.6V22.4Z" fill="#664B4F"/>
<path d="M143.135 98.08C144.562 98.08 145.613 98.68 146.289 99.88C147.04 101 147.415 102.24 147.415 103.6C147.415 105.28 147.152 106.48 146.627 107.2C146.176 107.84 145.275 108.52 143.924 109.24C140.77 110.84 136.866 112.12 132.21 113.08C127.555 114.04 122.562 114.52 117.231 114.52C110.548 114.52 105.63 113.32 102.477 110.92C99.398 108.52 97.4833 105.64 96.7325 102.28C96.0567 98.84 95.7188 94.36 95.7188 88.84C95.7188 82.92 95.9441 77.12 96.3946 71.44C96.8451 65.68 97.6335 58.36 98.7598 49.48C99.2854 45.64 100.712 42.88 103.04 41.2C105.367 39.44 107.92 38.56 110.698 38.56C113.026 38.56 116.818 38.48 122.074 38.32L131.872 38.2C135.927 38.2 138.855 38.32 140.657 38.56C142.91 39.04 144.562 39.6 145.613 40.24C146.739 40.8 147.302 41.8 147.302 43.24C147.302 44.84 146.777 46.4 145.726 47.92C144.75 49.44 143.248 50.2 141.221 50.2C138.893 50.2 135.552 50.04 131.197 49.72C126.842 49.4 123.575 49.24 121.398 49.24C119.521 49.24 117.681 49.36 115.879 49.6C113.777 49.76 112.275 50.04 111.374 50.44C110.473 50.84 109.947 51.52 109.797 52.48C108.746 60.72 108.221 66.8 108.221 70.72C109.948 70.96 111.637 71.08 113.289 71.08C115.391 71.08 117.644 70.96 120.046 70.72C122.449 70.48 123.988 70.32 124.664 70.24C128.644 69.84 132.06 69.64 134.913 69.64C136.565 69.64 137.804 69.96 138.63 70.6C139.531 71.24 139.982 72.12 139.982 73.24C139.982 75 139.531 76.36 138.63 77.32C137.804 78.28 136.302 79 134.125 79.48C131.497 80.04 128.231 80.48 124.326 80.8C120.497 81.12 116.743 81.28 113.064 81.28C111.787 81.28 110.023 81.2 107.77 81.04C107.545 85.92 107.432 90.44 107.432 94.6C107.432 100.28 110.961 103.12 118.019 103.12C121.773 103.12 124.889 102.84 127.367 102.28C129.845 101.72 132.698 100.92 135.927 99.88C138.93 98.68 141.333 98.08 143.135 98.08Z" fill="white"/>
<path d="M210.459 112.6C209.483 111.24 208.657 109.76 207.982 108.16C207.306 106.48 206.593 104.48 205.842 102.16C205.692 101.76 205.241 100.56 204.49 98.56C203.814 96.56 203.026 94.84 202.125 93.4C197.395 94.12 193.528 94.48 190.524 94.48C188.872 94.48 187.033 94.44 185.006 94.36C183.053 94.2 181.589 94.12 180.613 94.12C176.859 93.8 173.855 93.64 171.603 93.64C170.702 94.92 169.913 96.28 169.238 97.72C168.637 99.16 167.849 101.32 166.872 104.2C165.521 108.36 164.357 111.32 163.381 113.08C162.705 114.28 161.391 114.88 159.439 114.88C157.787 114.88 156.248 114.52 154.821 113.8C153.47 113 152.794 111.92 152.794 110.56C153.395 107.52 154.333 104.32 155.61 100.96C156.961 97.52 158.876 92.96 161.354 87.28L165.859 75.52C168.337 68.8 170.589 63.04 172.616 58.24C174.719 53.44 177.459 47.76 180.838 41.2C181.289 40.24 182.04 39.44 183.091 38.8C184.142 38.08 185.306 37.72 186.582 37.72C188.009 37.72 189.023 37.84 189.623 38.08C190.299 38.24 190.825 38.56 191.2 39.04C191.576 39.44 192.139 40.32 192.889 41.68C195.442 45.92 197.62 50.28 199.422 54.76C201.299 59.24 203.664 65.44 206.518 73.36L208.883 79.72C210.985 85.48 212.787 90.32 214.289 94.24C215.866 98.08 217.593 101.6 219.47 104.8C220.671 106.88 221.272 108.32 221.272 109.12C221.272 111.04 220.709 112.52 219.582 113.56C218.531 114.52 217.142 115 215.415 115C213.238 115 211.586 114.2 210.459 112.6ZM198.859 83.56C197.657 80.84 195.93 76.12 193.678 69.4C191.35 62.2 189.023 56.48 186.695 52.24C185.268 56.08 183.166 61.04 180.388 67.12C178.511 70.88 176.371 76.32 173.968 83.44C178.773 84.08 183.954 84.4 189.511 84.4C193.49 84.4 196.606 84.12 198.859 83.56Z" fill="white"/>
<path d="M281.713 92.68C281.713 96.44 280.887 99.68 279.236 102.4C277.659 105.04 275.031 107.48 271.352 109.72C268.874 111.32 265.983 112.52 262.679 113.32C259.376 114.12 256.034 114.52 252.655 114.52C249.201 114.52 244.922 113.32 239.816 110.92C236.137 109 233.208 106.72 231.031 104.08C228.928 101.44 227.877 98.56 227.877 95.44C227.877 93.28 228.328 91.72 229.229 90.76C230.13 89.72 231.594 89.2 233.621 89.2C234.672 89.2 235.761 89.68 236.887 90.64C238.014 91.52 238.689 92.4 238.915 93.28C239.966 96.56 241.806 99.08 244.434 100.84C247.062 102.52 250.328 103.36 254.232 103.36C258.737 103.36 262.492 102.48 265.495 100.72C268.573 98.96 270.113 96.6 270.113 93.64C270.113 90.76 268.461 88.2 265.157 85.96C261.853 83.72 258.474 82.16 255.021 81.28C250.065 79.84 245.672 78.12 241.843 76.12C237.864 74.04 234.898 71.48 232.945 68.44C230.993 65.4 230.017 62.2 230.017 58.84C230.017 55.72 231.031 52.56 233.058 49.36C235.085 46.08 237.488 43.72 240.266 42.28C241.768 41.48 244.321 40.64 247.925 39.76C251.604 38.8 254.27 38.32 255.922 38.32C258.099 38.32 260.502 38.6 263.13 39.16C265.758 39.72 267.898 40.52 269.55 41.56C272.853 43.56 275.294 45.36 276.87 46.96C278.447 48.56 279.236 50.56 279.236 52.96C279.236 54.4 278.71 55.68 277.659 56.8C276.683 57.92 274.956 58.48 272.478 58.48C271.877 58.48 271.277 58.2 270.676 57.64C270.075 57.08 269.324 56.24 268.423 55.12C267.222 53.44 266.058 52.32 264.932 51.76C263.806 51.36 262.154 50.92 259.976 50.44C257.874 49.96 255.997 49.72 254.345 49.72C252.543 49.72 250.666 50.12 248.713 50.92C246.761 51.72 245.109 52.88 243.758 54.4C242.481 55.84 241.843 57.52 241.843 59.44C241.843 61.04 242.519 62.44 243.87 63.64C245.297 64.76 246.986 65.68 248.939 66.4C251.191 67.36 253.631 68.2 256.259 68.92C259.713 70.04 262.529 71.08 264.707 72.04C266.959 72.92 269.137 74.04 271.239 75.4C274.918 77.72 277.584 80.12 279.236 82.6C280.887 85 281.713 88.36 281.713 92.68Z" fill="white"/>
<path d="M349.349 43.96C349.349 45.4 348.185 47.52 345.858 50.32C344.206 52.32 340.602 57.8 335.045 66.76C330.315 74.36 326.673 80 324.12 83.68C324.196 92.24 324.496 98.52 325.021 102.52C325.247 104.92 325.359 106.64 325.359 107.68C325.359 110.32 324.909 112.12 324.008 113.08C323.182 113.96 321.718 114.4 319.615 114.4C318.039 114.4 316.537 113.92 315.11 112.96C313.759 111.92 313.083 110.68 313.083 109.24C313.083 105.08 312.97 97.32 312.745 85.96C312.745 85.4 312.069 83.92 310.718 81.52C309.516 79.28 306.551 74.96 301.82 68.56C297.24 62.24 293.786 57.28 291.458 53.68C289.206 50 288.079 47.2 288.079 45.28C288.079 43.6 288.793 42.28 290.219 41.32C291.721 40.28 293.335 39.76 295.062 39.76C297.24 39.76 299.004 40.84 300.356 43C301.107 44.12 302.271 46.28 303.847 49.48C304.974 51.8 306.25 54.24 307.677 56.8C309.103 59.36 310.417 61.44 311.619 63.04L314.772 67.12C317.025 70 318.151 71.48 318.151 71.56C320.404 69.16 322.431 66.52 324.233 63.64C326.035 60.68 328.213 56.92 330.766 52.36L335.045 44.92L336.96 41.8C337.636 40.84 338.424 40.08 339.325 39.52C340.226 38.96 341.465 38.68 343.042 38.68C344.469 38.68 345.858 39.12 347.209 40C348.636 40.88 349.349 42.2 349.349 43.96Z" fill="white"/>
</svg>