<svg width="440" height="152" viewBox="0 0 440 152" fill="none" xmlns="http://www.w3.org/2000/svg">
<path d="M0 22.4C0 10.0288 9.41272 0 21.0239 0H418.976C430.587 0 440 10.0288 440 22.4V129.6C440 141.971 430.587 152 418.976 152H21.0239C9.41272 152 0 141.971 0 129.6V22.4Z" fill="#664B4F"/>
<path d="M130.238 71.44C130.163 70.16 130.126 68.24 130.126 65.68V61.12C130.126 58.08 130.051 55.8 129.901 54.28C129.75 53 129.675 49.68 129.675 44.32C129.675 42.4 130.201 40.92 131.252 39.88C132.378 38.76 133.88 38.2 135.757 38.2C138.16 38.2 139.774 38.76 140.6 39.88C141.426 41 141.839 42.84 141.839 45.4V49.96L141.726 63.16C141.651 65.72 141.614 69.56 141.614 74.68L141.726 84.52C141.802 86.04 141.839 88.16 141.839 90.88C141.839 93.04 141.914 96.12 142.064 100.12C142.215 103.8 142.29 106.56 142.29 108.4C142.29 109.92 141.877 111.32 141.051 112.6C140.3 113.88 139.249 114.52 137.897 114.52C132.641 114.52 130.013 112.64 130.013 108.88C130.013 106.8 130.088 104.48 130.238 101.92C130.389 100.08 130.464 97.28 130.464 93.52C130.464 90.88 130.389 87.08 130.238 82.12C126.709 82.44 120.628 82.6 111.993 82.6C106.587 82.6 102.382 82.6 99.3784 82.6C96.375 82.52 94.1975 82.32 92.8459 82L92.7333 95.8C92.7333 96.68 92.921 99.04 93.2964 102.88C93.6719 105.44 93.8596 107.68 93.8596 109.6C93.8596 110.8 93.1838 111.96 91.8323 113.08C90.5558 114.12 89.3545 114.64 88.2282 114.64C85.5251 114.64 83.6855 113.96 82.7094 112.6C81.7333 111.16 81.2453 109 81.2453 106.12L81.1326 96.64C81.0575 95.52 81.02 93.96 81.02 91.96C81.02 89 80.9449 84.96 80.7947 79.84C80.6446 75.2 80.5695 71.84 80.5695 69.76C80.5695 66.64 80.6446 62.28 80.7947 56.68C80.9449 51.4 81.02 47.48 81.02 44.92C81.02 42.36 81.6207 40.64 82.822 39.76C84.0234 38.88 85.3749 38.44 86.8767 38.44C91.0814 38.44 93.1838 39.92 93.1838 42.88C93.1838 48.16 93.0712 53.2 92.8459 58C92.6958 64.08 92.6207 68.52 92.6207 71.32C94.7982 71.88 97.0883 72.24 99.491 72.4C101.894 72.56 105.273 72.64 109.628 72.64C118.488 72.64 125.358 72.24 130.238 71.44Z" fill="white"/>
<path d="M209.91 112.6C208.933 111.24 208.107 109.76 207.432 108.16C206.756 106.48 206.043 104.48 205.292 102.16C205.142 101.76 204.691 100.56 203.94 98.56C203.264 96.56 202.476 94.84 201.575 93.4C196.845 94.12 192.978 94.48 189.974 94.48C188.323 94.48 186.483 94.44 184.456 94.36C182.503 94.2 181.039 94.12 180.063 94.12C176.309 93.8 173.305 93.64 171.053 93.64C170.152 94.92 169.363 96.28 168.688 97.72C168.087 99.16 167.299 101.32 166.322 104.2C164.971 108.36 163.807 111.32 162.831 113.08C162.155 114.28 160.841 114.88 158.889 114.88C157.237 114.88 155.698 114.52 154.271 113.8C152.92 113 152.244 111.92 152.244 110.56C152.845 107.52 153.783 104.32 155.06 100.96C156.411 97.52 158.326 92.96 160.804 87.28L165.309 75.52C167.787 68.8 170.039 63.04 172.067 58.24C174.169 53.44 176.91 47.76 180.288 41.2C180.739 40.24 181.49 39.44 182.541 38.8C183.592 38.08 184.756 37.72 186.032 37.72C187.459 37.72 188.473 37.84 189.073 38.08C189.749 38.24 190.275 38.56 190.65 39.04C191.026 39.44 191.589 40.32 192.34 41.68C194.892 45.92 197.07 50.28 198.872 54.76C200.749 59.24 203.114 65.44 205.968 73.36L208.333 79.72C210.435 85.48 212.237 90.32 213.739 94.24C215.316 98.08 217.043 101.6 218.92 104.8C220.121 106.88 220.722 108.32 220.722 109.12C220.722 111.04 220.159 112.52 219.032 113.56C217.981 114.52 216.592 115 214.865 115C212.688 115 211.036 114.2 209.91 112.6ZM198.309 83.56C197.107 80.84 195.381 76.12 193.128 69.4C190.8 62.2 188.473 56.48 186.145 52.24C184.718 56.08 182.616 61.04 179.838 67.12C177.961 70.88 175.821 76.32 173.418 83.44C178.224 84.08 183.404 84.4 188.961 84.4C192.94 84.4 196.056 84.12 198.309 83.56Z" fill="white"/>
<path d="M287.471 103.12C288.597 103.12 289.498 103.64 290.174 104.68C290.925 105.72 291.3 106.84 291.3 108.04C291.3 110.12 290.549 111.72 289.047 112.84C287.621 113.88 285.744 114.4 283.416 114.4C279.962 114.4 277.184 113.76 275.082 112.48C272.979 111.2 271.102 108.8 269.45 105.28C268.925 104 268.286 101.92 267.535 99.04C266.86 96.16 266.146 93.88 265.396 92.2C264.72 90.44 263.556 88.96 261.904 87.76C260.327 86.56 258.15 85.92 255.372 85.84L252.894 85.96C250.341 86.12 248.426 86.2 247.15 86.2C245.648 86.2 244.221 86.08 242.87 85.84C243.02 96.4 243.095 104.48 243.095 110.08C243.095 111.52 242.419 112.72 241.068 113.68C239.791 114.64 238.327 115.12 236.675 115.12C234.723 115.12 233.184 114.32 232.058 112.72C231.157 110.8 230.706 107.96 230.706 104.2C230.706 102.92 230.781 101.08 230.931 98.68L231.044 93.4C231.044 88.52 231.232 83.28 231.607 77.68C231.907 71.28 232.058 66.6 232.058 63.64C232.058 61.16 231.832 57.84 231.382 53.68C231.307 52.88 231.194 51.6 231.044 49.84C230.894 48 230.819 46.36 230.819 44.92C230.819 43.88 231.232 42.92 232.058 42.04C232.884 41.16 233.71 40.6 234.535 40.36C240.692 39.32 246.774 38.8 252.781 38.8C262.542 38.8 270.539 40.76 276.771 44.68C283.003 48.6 286.119 54.6 286.119 62.68C286.119 65.08 285.518 67.6 284.317 70.24C283.191 72.8 281.764 74.8 280.037 76.24C277.109 78.96 273.955 80.72 270.576 81.52C270.727 81.68 271.553 82.48 273.054 83.92C274.556 85.36 275.57 86.88 276.095 88.48L277.559 93.28C278.836 97.2 279.849 99.92 280.6 101.44C281.351 102.88 282.327 103.6 283.529 103.6C284.655 103.6 285.331 103.52 285.556 103.36C285.856 103.2 286.495 103.12 287.471 103.12ZM242.757 75.64C245.01 75.8 246.587 75.88 247.488 75.88C248.839 75.88 250.716 75.8 253.119 75.64L258.413 75.52C260.74 75.52 263.143 74.96 265.621 73.84C268.099 72.72 270.163 71.16 271.815 69.16C273.467 67.08 274.293 64.76 274.293 62.2C274.293 57.64 272.566 54.32 269.112 52.24C265.658 50.16 260.29 49.12 253.006 49.12C250.228 49.12 246.962 49.52 243.208 50.32C243.358 53.2 243.433 55.28 243.433 56.56C243.433 58.08 243.358 60.36 243.208 63.4L243.095 66.88C242.87 70.24 242.757 73.16 242.757 75.64Z" fill="white"/>
<path d="M354.16 52.84C356.637 55.96 358.665 59.48 360.242 63.4C361.893 67.32 362.719 72.04 362.719 77.56C362.719 81.64 361.818 85.92 360.016 90.4C358.289 94.8 356.037 98.36 353.259 101.08C350.405 104.04 347.59 106.44 344.811 108.28C342.108 110.12 338.467 111.64 333.887 112.84C329.306 113.96 323.45 114.52 316.317 114.52C311.661 114.52 308.245 113.68 306.067 112C303.965 110.32 302.914 107.8 302.914 104.44C302.914 102.2 303.214 98.44 303.815 93.16C304.416 88.04 304.716 84.52 304.716 82.6C304.716 75 304.603 68.6 304.378 63.4C304.228 58.12 304.04 53.28 303.815 48.88C301.712 48.88 300.248 48.32 299.422 47.2C298.596 46.08 298.183 44.92 298.183 43.72C298.183 41.8 299.047 40.36 300.774 39.4C302.501 38.36 305.467 37.84 309.672 37.84C319.808 37.84 328.518 38.84 335.801 40.84C343.16 42.84 349.279 46.84 354.16 52.84ZM314.402 103.24C316.204 103.56 318.757 103.72 322.061 103.72C326.941 103.72 331.596 102.64 336.026 100.48C340.457 98.24 344.023 95.16 346.726 91.24C349.429 87.24 350.781 82.64 350.781 77.44C350.781 72 349.88 67.36 348.078 63.52C346.351 59.68 343.573 56.52 339.743 54.04C337.04 52.2 333.699 50.88 329.719 50.08C325.74 49.2 320.897 48.76 315.19 48.76C315.19 53.64 315.265 57.72 315.416 61L315.641 64.72C315.941 71.6 316.091 76.76 316.091 80.2C316.091 83.48 315.904 87.36 315.528 91.84C315.228 96.32 314.852 100.12 314.402 103.24Z" fill="white"/>
</svg>
