<svg width="440" height="151" viewBox="0 0 440 151" fill="none" xmlns="http://www.w3.org/2000/svg">
<path d="M0 22.2526C0 9.96284 9.41272 0 21.0239 0H418.976C430.587 0 440 9.96284 440 22.2526V128.747C440 141.037 430.587 151 418.976 151H21.0239C9.41272 151 0 141.037 0 128.747V22.2526Z" fill="#664B4F"/>
<path d="M86.0777 51.3082C86.0777 49.4644 86.4681 47.8749 87.249 46.5398C88.09 45.1411 89.3214 44.4417 90.9432 44.4417C92.3248 44.4417 93.5562 44.7278 94.6374 45.3C95.7187 45.8722 96.2593 46.8259 96.2593 48.1611C96.2593 50.7678 96.1391 54.4236 95.8989 59.1284C95.6586 63.7061 95.5385 67.1076 95.5385 69.3328C95.5385 72.8297 95.6586 77.5027 95.8989 83.352C96.1391 88.9469 96.2593 93.0478 96.2593 95.6545C96.2593 97.7526 96.2292 99.3103 96.1692 100.328C96.1692 101.345 95.6286 102.362 94.5473 103.379C93.5262 104.333 91.9344 104.81 89.7719 104.81C88.6306 104.81 87.6395 104.619 86.7985 104.238C86.0176 103.793 85.477 103.316 85.1767 102.807C82.3535 99.1832 78.2388 93.016 72.8326 84.3057C66.7658 74.5781 61.8101 67.1394 57.9658 61.9895C58.4463 66.5672 58.6866 72.1621 58.6866 78.7743C58.6866 81.6989 58.6265 85.5137 58.5064 90.2185C58.4463 94.8598 58.3262 97.9116 58.146 99.3739C57.9057 101.218 57.3651 102.648 56.5241 103.665C55.7432 104.619 54.4818 105.096 52.7398 105.096C51.4183 105.096 50.4272 104.715 49.7664 103.952C49.1658 103.125 48.8053 101.726 48.6852 99.7554C48.6251 97.1486 48.7753 93.2385 49.1357 88.0251C49.1958 87.1985 49.2859 85.768 49.406 83.7335C49.5262 81.699 49.5862 79.8869 49.5862 78.2975C49.5862 73.9105 49.376 68.8878 48.9555 63.2293C48.5951 56.9985 48.4149 52.389 48.4149 49.4008C48.4149 47.8749 48.9255 46.6987 49.9466 45.8722C51.0279 45.0457 52.2593 44.6324 53.6408 44.6324C54.8422 44.6324 56.1036 44.9503 57.4251 45.5861C62.591 52.4526 69.589 62.6888 78.419 76.2947L86.8886 90.0278C86.9487 89.0105 86.9787 87.58 86.9787 85.7362C86.9787 82.4937 86.9187 78.9968 86.7985 75.2457C86.6784 71.4945 86.5883 68.9514 86.5282 67.6162C86.2279 61.4491 86.0777 56.0131 86.0777 51.3082Z" fill="white"/>
<path d="M133.995 44.2509C138.019 44.2509 141.683 44.7914 144.987 45.8722C148.291 46.8895 150.994 48.4154 153.096 50.4499C156.881 54.0739 159.524 58.0476 161.025 62.3709C162.587 66.6307 163.368 72.0985 163.368 78.7743C163.368 80.173 163.188 81.4446 162.827 82.5891C162.527 83.7335 162.016 85.1958 161.296 86.976C160.395 88.947 159.854 90.5046 159.674 91.6491C158.472 93.8743 156.49 96.0042 153.727 98.0387C151.024 100.073 148.081 101.726 144.897 102.998C141.713 104.269 138.92 104.905 136.517 104.905C124.924 104.905 116.665 100.709 111.739 92.3166C110.358 89.9642 109.276 87.5164 108.496 84.9733C107.775 82.4301 107.414 79.9505 107.414 77.5345C107.414 71.0495 108.496 65.4227 110.658 60.6543C112.881 55.8223 115.944 52.0712 119.848 49.4008C122.191 47.9385 124.624 46.7305 127.147 45.7768C129.73 44.7596 132.012 44.2509 133.995 44.2509ZM116.785 77.8206C116.785 81.2539 117.506 84.0832 118.947 86.3084C120.449 88.5337 122.732 90.9497 125.795 93.5564C128.318 94.5737 130.03 95.2413 130.931 95.5592C131.832 95.8135 132.853 95.9406 133.995 95.9406C140.061 95.9406 144.897 94.1922 148.501 90.6954C152.105 87.1985 153.907 82.3983 153.907 76.2947C153.907 71.4627 153.397 67.648 152.375 64.8505C151.354 62.0531 149.522 59.5417 146.879 57.3164C145.498 56.1084 143.726 55.2183 141.563 54.6461C139.461 54.0739 137.178 53.7878 134.715 53.7878C130.991 53.7878 127.778 54.964 125.074 57.3164C122.371 59.6053 120.299 62.5935 118.857 66.2811C117.476 69.9686 116.785 73.8152 116.785 77.8206Z" fill="white"/>
<path d="M220.007 95.9406C220.908 95.9406 221.629 96.3539 222.17 97.1804C222.77 98.007 223.071 98.8971 223.071 99.8507C223.071 101.504 222.47 102.775 221.269 103.665C220.127 104.492 218.626 104.905 216.763 104.905C214 104.905 211.778 104.397 210.096 103.379C208.414 102.362 206.912 100.455 205.591 97.6573C205.17 96.64 204.66 94.9869 204.059 92.6981C203.518 90.4093 202.948 88.5973 202.347 87.2621C201.806 85.8634 200.875 84.6872 199.554 83.7335C198.292 82.7798 196.551 82.2712 194.328 82.2076L192.346 82.3029C190.303 82.4301 188.772 82.4937 187.751 82.4937C186.549 82.4937 185.408 82.3983 184.327 82.2076C184.447 90.6 184.507 97.0215 184.507 101.472C184.507 102.616 183.966 103.57 182.885 104.333C181.864 105.096 180.692 105.477 179.371 105.477C177.809 105.477 176.578 104.842 175.677 103.57C174.956 102.044 174.596 99.7872 174.596 96.799C174.596 95.7817 174.656 94.3194 174.776 92.412L174.866 88.2158C174.866 84.3375 175.016 80.1731 175.316 75.7225C175.557 70.6362 175.677 66.9168 175.677 64.5644C175.677 62.5935 175.497 59.9549 175.136 56.6488C175.076 56.0131 174.986 54.9958 174.866 53.597C174.746 52.1347 174.686 50.8314 174.686 49.6869C174.686 48.8604 175.016 48.0975 175.677 47.3981C176.338 46.6987 176.998 46.2537 177.659 46.0629C182.585 45.2364 187.45 44.8232 192.256 44.8232C200.064 44.8232 206.462 46.3808 211.447 49.4962C216.433 52.6116 218.926 57.38 218.926 63.8015C218.926 65.7088 218.445 67.7116 217.484 69.8097C216.583 71.8442 215.442 73.4337 214.06 74.5781C211.718 76.7398 209.195 78.1385 206.492 78.7743C206.612 78.9015 207.273 79.5373 208.474 80.6817C209.675 81.8261 210.486 83.0341 210.907 84.3057L212.078 88.1204C213.099 91.2358 213.91 93.3975 214.511 94.6055C215.112 95.7499 215.892 96.3221 216.854 96.3221C217.755 96.3221 218.295 96.2585 218.475 96.1314C218.716 96.0042 219.226 95.9406 220.007 95.9406ZM184.237 74.1013C186.039 74.2284 187.3 74.292 188.021 74.292C189.102 74.292 190.604 74.2284 192.526 74.1013L196.761 74.0059C198.623 74.0059 200.545 73.5608 202.527 72.6707C204.51 71.7806 206.161 70.5408 207.483 68.9514C208.804 67.2983 209.465 65.4545 209.465 63.42C209.465 59.796 208.084 57.1575 205.32 55.5044C202.557 53.8514 198.262 53.0248 192.436 53.0248C190.213 53.0248 187.6 53.3427 184.597 53.9785C184.717 56.2674 184.777 57.9204 184.777 58.9377C184.777 60.1457 184.717 61.9577 184.597 64.3737L184.507 67.1394C184.327 69.8097 184.237 72.1303 184.237 74.1013Z" fill="white"/>
<path d="M282.098 44.6324C282.939 44.6324 283.96 45.2364 285.162 46.4444C286.423 47.5888 287.054 48.5743 287.054 49.4008C287.054 53.2792 286.934 58.588 286.693 65.3274C286.633 66.9804 286.573 68.9832 286.513 71.3356C286.453 73.6244 286.423 76.2947 286.423 79.3465C286.423 84.4328 286.483 88.7244 286.603 92.2213C286.784 95.6545 287.144 98.4838 287.685 100.709C287.625 102.235 287.054 103.348 285.973 104.047C284.891 104.683 283.78 105.001 282.639 105.001C280.296 105.001 278.795 104.142 278.134 102.426C277.533 100.709 277.233 98.1341 277.233 94.7008C277.233 80.7135 277.383 69.4282 277.683 60.8451C276.302 62.4345 274.98 64.2465 273.719 66.2811C272.457 68.3156 270.896 70.9859 269.033 74.292C266.631 78.5518 264.678 81.7943 263.177 84.0196C262.396 85.0368 261.705 85.7362 261.104 86.1177C260.504 86.4992 259.603 86.6899 258.401 86.6899C256.9 86.6899 255.728 86.3084 254.887 85.5455C254.106 84.7825 253.175 83.5427 252.094 81.8261C250.532 79.3465 248.07 75.0549 244.706 68.9514L239.93 60.6543C239.93 71.0813 240.111 79.6326 240.471 86.3084C240.771 90.4411 240.921 94.7962 240.921 99.3739C240.921 100.9 240.531 102.203 239.75 103.284C239.029 104.301 237.918 104.81 236.416 104.81C234.794 104.81 233.503 104.492 232.542 103.856C231.641 103.22 231.16 102.267 231.1 100.995C231.16 99.9143 231.19 98.1341 231.19 95.6545C231.19 87.3257 231.07 79.5691 230.83 72.3846L230.65 65.7088C230.59 63.7379 230.53 61.4491 230.47 58.8423C230.41 56.172 230.38 53.2792 230.38 50.1638C230.38 46.3491 232.332 44.4417 236.236 44.4417C237.438 44.4417 238.639 44.7596 239.84 45.3954C241.102 46.0312 242.033 46.9531 242.633 48.1611C243.655 50.4499 246.057 54.8368 249.842 61.3219C253.626 67.7434 256.449 72.4164 258.311 75.3411C259.573 73.6244 260.714 71.8442 261.735 70.0004C262.816 68.1566 263.717 66.5672 264.438 65.232C266.661 61.4173 269.063 57.8251 271.646 54.4554C273.629 51.9122 275.25 49.5598 276.512 47.3981C277.113 46.6352 277.893 45.9994 278.855 45.4907C279.876 44.9185 280.957 44.6324 282.098 44.6324Z" fill="white"/>
<path d="M341.771 103.475C340.99 102.394 340.329 101.218 339.788 99.9461C339.248 98.611 338.677 97.0215 338.076 95.1777C337.956 94.8598 337.596 93.9061 336.995 92.3166C336.455 90.7272 335.824 89.3602 335.103 88.2158C331.319 88.788 328.225 89.0741 325.823 89.0741C324.501 89.0741 323.029 89.0423 321.408 88.9787C319.846 88.8516 318.674 88.788 317.894 88.788C314.89 88.5337 312.487 88.4065 310.685 88.4065C309.965 89.4238 309.334 90.5046 308.793 91.6491C308.313 92.7935 307.682 94.5101 306.901 96.799C305.82 100.105 304.889 102.457 304.108 103.856C303.567 104.81 302.516 105.287 300.954 105.287C299.633 105.287 298.401 105.001 297.26 104.428C296.179 103.793 295.638 102.934 295.638 101.853C296.119 99.4375 296.87 96.8943 297.891 94.224C298.972 91.4901 300.504 87.8661 302.486 83.352L306.09 74.0059C308.072 68.6653 309.874 64.0876 311.496 60.2728C313.178 56.4581 315.371 51.944 318.074 46.7305C318.434 45.9676 319.035 45.3318 319.876 44.8232C320.717 44.2509 321.648 43.9648 322.669 43.9648C323.81 43.9648 324.621 44.0602 325.102 44.2509C325.642 44.3781 326.063 44.6324 326.363 45.0139C326.664 45.3318 327.114 46.0312 327.715 47.112C329.757 50.4817 331.499 53.9467 332.941 57.5072C334.442 61.0676 336.335 65.9949 338.617 72.2893L340.509 77.3438C342.191 81.9215 343.633 85.768 344.834 88.8834C346.096 91.9352 347.477 94.7326 348.979 97.2758C349.94 98.9288 350.421 100.073 350.421 100.709C350.421 102.235 349.97 103.411 349.069 104.238C348.228 105.001 347.117 105.382 345.735 105.382C343.993 105.382 342.672 104.746 341.771 103.475ZM332.49 80.3956C331.529 78.2339 330.147 74.4827 328.345 69.1421C326.483 63.42 324.621 58.8741 322.759 55.5044C321.618 58.5562 319.936 62.4981 317.713 67.3301C316.212 70.3183 314.5 74.6417 312.578 80.3002C316.422 80.8088 320.567 81.0632 325.012 81.0632C328.195 81.0632 330.688 80.8406 332.49 80.3956Z" fill="white"/>
<path d="M362.913 44.3463C364.054 44.3463 365.076 44.6642 365.977 45.3C366.938 45.9358 367.508 47.0484 367.688 48.6379C368.409 53.6606 368.86 58.6834 369.04 63.7061C369.28 68.6653 369.4 74.292 369.4 80.5863C369.4 83.2566 369.19 88.1204 368.77 95.1777C371.413 95.432 373.455 95.5592 374.897 95.5592C375.918 95.5592 378.23 95.4002 381.835 95.0823C383.937 94.7644 385.769 94.6055 387.331 94.6055C388.772 94.6055 390.094 94.7644 391.295 95.0823C392.497 95.3366 393.728 95.7817 394.99 96.4175C396.251 97.1804 396.882 98.3566 396.882 99.9461C396.882 101.218 396.491 102.362 395.71 103.379C394.99 104.397 394.119 104.905 393.097 104.905C392.377 104.905 391.235 104.778 389.673 104.524C386.85 104.079 384.147 103.856 381.564 103.856C380.723 103.856 379.762 103.92 378.681 104.047C377.66 104.111 376.909 104.142 376.428 104.142C374.987 104.333 373.545 104.428 372.104 104.428C369.16 104.428 366.517 104.269 364.174 103.952C362.973 103.824 361.772 103.348 360.57 102.521C359.369 101.631 358.768 100.359 358.768 98.7063C358.768 97.7526 358.888 95.3048 359.129 91.3629C359.549 84.8143 359.759 79.8234 359.759 76.3901C359.759 73.7198 359.639 70.9223 359.399 67.9977C359.159 65.0731 359.009 63.2293 358.949 62.4663C358.408 57.0621 358.138 52.6116 358.138 49.1147C358.138 47.4617 358.498 46.2537 359.219 45.4907C360 44.7278 361.231 44.3463 362.913 44.3463Z" fill="white"/>
</svg>
